<?xml version="1.0" encoding="UTF-8" standalone="no"?>
<!-- Created with Inkscape (http://www.inkscape.org/) -->

<svg
   xmlns:dc="http://purl.org/dc/elements/1.1/"
   xmlns:cc="http://creativecommons.org/ns#"
   xmlns:rdf="http://www.w3.org/1999/02/22-rdf-syntax-ns#"
   xmlns:svg="http://www.w3.org/2000/svg"
   xmlns="http://www.w3.org/2000/svg"
   xmlns:sodipodi="http://sodipodi.sourceforge.net/DTD/sodipodi-0.dtd"
   xmlns:inkscape="http://www.inkscape.org/namespaces/inkscape"
   width="158.09029"
   height="163.18816"
   id="svg2"
   version="1.1"
   inkscape:version="0.48.2 r9819"
   sodipodi:docname="arrows.svg">
  <defs
     id="defs4" />
  <sodipodi:namedview
     id="base"
     pagecolor="#ffffff"
     bordercolor="#666666"
     borderopacity="1.0"
     inkscape:pageopacity="0.0"
     inkscape:pageshadow="2"
     inkscape:zoom="1.979899"
     inkscape:cx="89.297973"
     inkscape:cy="120.44191"
     inkscape:document-units="px"
     inkscape:current-layer="layer1"
     showgrid="false"
     showguides="true"
     inkscape:guide-bbox="true"
     fit-margin-top="0"
     fit-margin-left="0"
     fit-margin-right="0"
     fit-margin-bottom="0"
     inkscape:window-width="1472"
     inkscape:window-height="863"
     inkscape:window-x="0"
     inkscape:window-y="0"
     inkscape:window-maximized="0" />
  <metadata
     id="metadata7">
    <rdf:RDF>
      <cc:Work
         rdf:about="">
        <dc:format>image/svg+xml</dc:format>
        <dc:type
           rdf:resource="http://purl.org/dc/dcmitype/StillImage" />
        <dc:title />
      </cc:Work>
    </rdf:RDF>
  </metadata>
  <g
     inkscape:label="Layer 1"
     inkscape:groupmode="layer"
     id="layer1"
     transform="translate(-284.9416,-199.30329)">
    <g
       id="g3793"
       transform="matrix(0.66145828,-0.24050726,0.24050726,0.66145828,41.925674,213.36762)">
      <path
         inkscape:connector-curvature="0"
         id="path2985"
         d="m 296.24153,231.17187 c -4.18928,21.6396 -12.61943,39.74836 -25.34375,61 l 21.21875,-13.3125 c 13.07236,46.2168 55.06532,78.5625 105.46875,78.5625 37.84193,0 71.21654,-19.08943 91.03125,-48.15625 l -14.78125,-8.90625 c -17.63429,24.19331 -45.52237,41.90625 -76.25,41.90625 -41.02897,0 -77.00786,-28.53289 -90.28125,-64.96875 l 23.71875,6.25 c -11.77586,-15.09672 -27.02046,-31.29388 -34.78125,-52.375 z"
         style="fill:#000000;fill-opacity:1;stroke:#000000;stroke-width:10;stroke-linejoin:round;stroke-miterlimit:4;stroke-opacity:1;stroke-dasharray:none" />
      <path
         inkscape:connector-curvature="0"
         id="path3764"
         d="m 396.99153,135.70312 c -38.0278,0 -71.50331,19.28574 -91.28125,48.59375 l 14.78125,8.875 c 17.61775,-24.39757 45.60348,-42.3125 76.5,-42.3125 41.02898,0 77.00786,28.5329 90.28125,64.96875 l -23.71875,-6.25 c 11.77587,15.09673 27.02047,31.29389 34.78125,52.375 4.18928,-21.63959 12.61944,-39.74836 25.34375,-61 l -21.21875,13.3125 c -13.07234,-46.2168 -55.06531,-78.5625 -105.46875,-78.5625 z"
         style="fill:#000000;fill-opacity:1;stroke:#000000;stroke-width:10;stroke-linejoin:round;stroke-miterlimit:4;stroke-opacity:1;stroke-dasharray:none" />
    </g>
  </g>
</svg>
